# xmcd CD database file
# Copyright (C) 1993-1998 Ti Kan
#
# Track frame offsets:
#  183
#  13410
#  39740
#  55155
#  65933
#  79760
#  83343
#  97093
#  114828
#  120070
#  141045
#  162630
#  177760
#  187080
#  203658
#  214298
#  231968
#  249580
#  268525
#  289798
#  303815
#
# Disc length: 4337 seconds
#
# Revision: 1
# Processed by: cddbd v1.4b41PL1 Copyright (c) Steve Scherf et al.
# Submitted via: CDWizzard Release:4.35
#
DISCID=2910ef15
DTITLE=Klaus Hoffmann - Saenger 2
DYEAR=1900
DGENRE=
TTITLE0=Musik der Strasse
TTITLE1=Der Flieger
TTITLE2=Mona
TTITLE3=Der Kuenstler auf Reisen
TTITLE4=Amsterdam
TTITLE5=Sammy und Paul und die anderen
TTITLE6=Geh nicht fort von mir
TTITLE7=Derselbe Mond ueber Berlin
TTITLE8=Dann kam Dreilinden
TTITLE9=Komm wir reiten den Wind
TTITLE10=Zwei wie wir
TTITLE11=Weile an dieser Quelle
TTITLE12=Der Genuegsame
TTITLE13=Ich hab's gewusst
TTITLE14=Diese Huete
TTITLE15=Wir leben noch
TTITLE16=Saenger
TTITLE17=Als wenn es gar nichts waer
TTITLE18=Jedes Kind braucht einen Engel
TTITLE19=Fluegel
TTITLE20=Wenn ich sing - Reprise
EXTD=
EXTT0=
EXTT1=
EXTT2=
EXTT3=
EXTT4=
EXTT5=
EXTT6=
EXTT7=
EXTT8=
EXTT9=
EXTT10=
EXTT11=
EXTT12=
EXTT13=
EXTT14=
EXTT15=
EXTT16=
EXTT17=
EXTT18=
EXTT19=
EXTT20=
PLAYORDER=
